<svg width="0" height="0" class="hidden">
    <symbol viewBox="0 0 384 277" fill="none" xmlns="http://www.w3.org/2000/svg" id="equals">
      <path d="M320 128H64C28.7147 128 0 99.2853 0 64C0 28.7147 28.7147 0 64 0H320C355.285 0 384 28.7147 384 64C384 99.2853 355.285 128 320 128ZM64 42.6667C58.5071 42.9124 53.3206 45.2673 49.5206 49.2412C45.7205 53.2151 43.5996 58.5016 43.5996 64C43.5996 69.4984 45.7205 74.7849 49.5206 78.7588C53.3206 82.7327 58.5071 85.0876 64 85.3333H320C325.493 85.0876 330.679 82.7327 334.479 78.7588C338.28 74.7849 340.4 69.4984 340.4 64C340.4 58.5016 338.28 53.2151 334.479 49.2412C330.679 45.2673 325.493 42.9124 320 42.6667H64ZM320 277.333H64C28.7147 277.333 0 248.619 0 213.333C0 178.048 28.7147 149.333 64 149.333H320C355.285 149.333 384 178.048 384 213.333C384 248.619 355.285 277.333 320 277.333ZM64 192C58.5071 192.246 53.3206 194.601 49.5206 198.575C45.7205 202.548 43.5996 207.835 43.5996 213.333C43.5996 218.832 45.7205 224.118 49.5206 228.092C53.3206 232.066 58.5071 234.421 64 234.667H320C325.493 234.421 330.679 232.066 334.479 228.092C338.28 224.118 340.4 218.832 340.4 213.333C340.4 207.835 338.28 202.548 334.479 198.575C330.679 194.601 325.493 192.246 320 192H64Z" fill="white"/>
    </symbol>

    <symbol viewBox="0 0 538 512" fill="none" xmlns="http://www.w3.org/2000/svg" id="menu">
      <g clip-path="url(#clip0_115266_8)">
      <path fill-rule="evenodd" clip-rule="evenodd" d="M483.84 435.43C483.84 449.536 470.579 460.8 455.757 460.8H375.117C371.749 460.879 368.4 460.28 365.269 459.037C362.138 457.794 359.29 455.933 356.894 453.565C354.497 451.198 352.602 448.372 351.322 445.256C350.041 442.14 349.401 438.799 349.44 435.43V358.63C349.389 355.237 350.017 351.868 351.287 348.721C352.557 345.574 354.444 342.713 356.837 340.306C359.229 337.899 362.079 335.995 365.218 334.706C368.358 333.417 371.723 332.769 375.117 332.8H455.757C470.605 332.8 483.84 344.525 483.84 358.63V435.43ZM455.757 281.6H375.117C330.573 281.6 295.68 316.211 295.68 358.63V435.43C295.68 477.85 330.573 512 375.117 512H455.757C500.301 512 537.6 477.85 537.6 435.43V358.63C537.6 316.211 500.301 281.6 455.757 281.6ZM188.16 435.43C188.16 449.536 174.899 460.8 160.077 460.8H79.4368C76.0691 460.879 72.72 460.28 69.5891 459.037C66.4583 457.794 63.6098 455.933 61.2135 453.565C58.8173 451.198 56.9224 448.372 55.6418 445.256C54.3612 442.14 53.7213 438.799 53.76 435.43V358.63C53.7086 355.237 54.3366 351.868 55.6068 348.721C56.8771 345.574 58.764 342.713 61.1566 340.306C63.5491 337.899 66.399 335.995 69.5383 334.706C72.6777 333.417 76.0432 332.769 79.4368 332.8H160.077C174.925 332.8 188.16 344.525 188.16 358.63V435.43ZM160.077 281.6H79.4368C34.8928 281.6 0 316.211 0 358.63V435.43C0 477.85 34.8928 512 79.4368 512H160.077C204.621 512 241.92 477.85 241.92 435.43V358.63C241.92 316.211 204.621 281.6 160.077 281.6ZM483.84 153.83C483.84 167.936 470.579 179.2 455.757 179.2H375.117C371.749 179.279 368.4 178.68 365.269 177.437C362.138 176.194 359.29 174.333 356.894 171.965C354.497 169.598 352.602 166.772 351.322 163.656C350.041 160.54 349.401 157.199 349.44 153.83V77.0304C349.389 73.6371 350.017 70.2678 351.287 67.1208C352.557 63.9737 354.444 61.1126 356.837 58.7057C359.229 56.2989 362.079 54.3949 365.218 53.1059C368.358 51.8169 371.723 51.1689 375.117 51.2H455.757C470.605 51.2 483.84 62.9248 483.84 77.0304V153.83ZM455.757 0H375.117C330.573 0 295.68 34.6112 295.68 77.0304V153.83C295.68 196.25 330.573 230.4 375.117 230.4H455.757C500.301 230.4 537.6 196.25 537.6 153.83V77.0304C537.6 34.6112 500.301 0 455.757 0ZM188.16 153.83C188.16 167.936 174.899 179.2 160.077 179.2H79.4368C76.0691 179.279 72.72 178.68 69.5891 177.437C66.4583 176.194 63.6098 174.333 61.2135 171.965C58.8173 169.598 56.9224 166.772 55.6418 163.656C54.3612 160.54 53.7213 157.199 53.76 153.83V77.0304C53.7086 73.6371 54.3366 70.2678 55.6068 67.1208C56.8771 63.9737 58.764 61.1126 61.1566 58.7057C63.5491 56.2989 66.399 54.3949 69.5383 53.1059C72.6777 51.8169 76.0432 51.1689 79.4368 51.2H160.077C174.925 51.2 188.16 62.9248 188.16 77.0304V153.83ZM160.077 0H79.4368C34.8928 0 0 34.6112 0 77.0304V153.83C0 196.25 34.8928 230.4 79.4368 230.4H160.077C204.621 230.4 241.92 196.25 241.92 153.83V77.0304C241.92 34.6112 204.621 0 160.077 0Z" fill="white"/>
      </g>
      <defs>
      <clipPath id="clip0_115266_8">
      <rect width="537.6" height="512" fill="white"/>
      </clipPath>
      </defs>
  </symbol>

  <symbol viewBox="0 0 428 428" fill="none" xmlns="http://www.w3.org/2000/svg" id="currency">
    <path d="M192.666 150H278C283.658 150 289.084 147.752 293.085 143.751C297.086 139.751 299.333 134.324 299.333 128.666C299.333 123.009 297.086 117.582 293.085 113.582C289.084 109.581 283.658 107.333 278 107.333H235.333V85.9998C235.333 80.3419 233.086 74.9157 229.085 70.9149C225.084 66.9141 219.658 64.6665 214 64.6665C208.342 64.6665 202.916 66.9141 198.915 70.9149C194.914 74.9157 192.666 80.3419 192.666 85.9998V107.333C175.693 107.333 159.414 114.076 147.412 126.078C135.409 138.081 128.666 154.359 128.666 171.333C128.666 188.307 135.409 204.586 147.412 216.588C159.414 228.59 175.693 235.333 192.666 235.333H235.333C240.991 235.333 246.417 237.581 250.418 241.582C254.419 245.582 256.666 251.009 256.666 256.666C256.666 262.324 254.419 267.751 250.418 271.751C246.417 275.752 240.991 278 235.333 278H150C144.342 278 138.916 280.247 134.915 284.248C130.914 288.249 128.666 293.675 128.666 299.333C128.666 304.991 130.914 310.417 134.915 314.418C138.916 318.419 144.342 320.666 150 320.666H192.666V342C192.666 347.658 194.914 353.084 198.915 357.085C202.916 361.086 208.342 363.333 214 363.333C219.658 363.333 225.084 361.086 229.085 357.085C233.086 353.084 235.333 347.658 235.333 342V320.666C252.307 320.666 268.586 313.924 280.588 301.921C292.59 289.919 299.333 273.64 299.333 256.666C299.333 239.693 292.59 223.414 280.588 211.412C268.586 199.409 252.307 192.666 235.333 192.666H192.666C187.009 192.666 181.582 190.419 177.582 186.418C173.581 182.417 171.333 176.991 171.333 171.333C171.333 165.675 173.581 160.249 177.582 156.248C181.582 152.247 187.009 150 192.666 150ZM363.333 0.666504H64.6665C47.6926 0.666504 31.414 7.40934 19.4117 19.4117C7.40934 31.414 0.666504 47.6926 0.666504 64.6665V363.333C0.666504 380.307 7.40934 396.586 19.4117 408.588C31.414 420.59 47.6926 427.333 64.6665 427.333H363.333C380.307 427.333 396.586 420.59 408.588 408.588C420.59 396.586 427.333 380.307 427.333 363.333V64.6665C427.333 47.6926 420.59 31.414 408.588 19.4117C396.586 7.40934 380.307 0.666504 363.333 0.666504ZM384.666 363.333C384.666 368.991 382.419 374.417 378.418 378.418C374.417 382.419 368.991 384.666 363.333 384.666H64.6665C59.0085 384.666 53.5823 382.419 49.5816 378.418C45.5808 374.417 43.3332 368.991 43.3332 363.333V64.6665C43.3332 59.0085 45.5808 53.5823 49.5816 49.5816C53.5823 45.5808 59.0085 43.3332 64.6665 43.3332H363.333C368.991 43.3332 374.417 45.5808 378.418 49.5816C382.419 53.5823 384.666 59.0085 384.666 64.6665V363.333Z" fill="white"/>
  </symbol>

  <symbol viewBox="0 0 86 384" fill="none" xmlns="http://www.w3.org/2000/svg" id="history">
    <path d="M43.0002 85.3334C51.4389 85.3334 59.688 82.831 66.7045 78.1427C73.721 73.4544 79.1897 66.7908 82.419 58.9945C85.6484 51.1982 86.4933 42.6194 84.847 34.3428C83.2007 26.0663 79.1371 18.4638 73.1701 12.4968C67.203 6.52975 59.6006 2.46615 51.324 0.819847C43.0475 -0.826455 34.4687 0.0184867 26.6724 3.24783C18.8761 6.47716 12.2124 11.9459 7.52415 18.9624C2.83588 25.9788 0.333519 34.228 0.333519 42.6667C0.333519 53.9826 4.82875 64.835 12.8303 72.8366C20.8319 80.8381 31.6843 85.3334 43.0002 85.3334ZM43.0002 298.667C34.5615 298.667 26.3124 301.169 19.2959 305.857C12.2794 310.546 6.81066 317.209 3.58132 325.005C0.351983 332.802 -0.492959 341.381 1.15334 349.657C2.79965 357.934 6.86326 365.536 12.8303 371.503C18.7973 377.47 26.3998 381.534 34.6763 383.18C42.9529 384.826 51.5317 383.982 59.328 380.752C67.1243 377.523 73.7879 372.054 78.4762 365.038C83.1645 358.021 85.6668 349.772 85.6668 341.333C85.6668 330.017 81.1716 319.165 73.1701 311.163C65.1685 303.162 54.3161 298.667 43.0002 298.667ZM43.0002 149.333C34.5615 149.333 26.3124 151.836 19.2959 156.524C12.2794 161.212 6.81066 167.876 3.58132 175.672C0.351983 183.469 -0.492959 192.047 1.15334 200.324C2.79965 208.6 6.86326 216.203 12.8303 222.17C18.7973 228.137 26.3998 232.201 34.6763 233.847C42.9529 235.493 51.5317 234.648 59.328 231.419C67.1243 228.19 73.7879 222.721 78.4762 215.704C83.1645 208.688 85.6668 200.439 85.6668 192C85.6668 180.684 81.1716 169.832 73.1701 161.83C65.1685 153.829 54.3161 149.333 43.0002 149.333Z" fill="white"/>
  </symbol>

  <symbol viewBox="0 0 512 360" fill="none" xmlns="http://www.w3.org/2000/svg" id="erase">
    <path d="M460.8 0.799805H216.218C204.954 0.799805 188.8 6.84141 180.327 14.2398L6.34892 166.509C4.35959 168.147 2.7575 170.205 1.65761 172.535C0.557717 174.865 -0.0126953 177.41 -0.0126953 179.987C-0.0126953 182.564 0.557717 185.109 1.65761 187.439C2.7575 189.769 4.35959 191.827 6.34892 193.465L180.327 345.709C188.8 353.107 204.954 359.2 216.218 359.2H460.8C488.96 359.2 512 336.16 512 308V51.9998C512 23.8398 488.96 0.799805 460.8 0.799805ZM388.89 282.4L323.431 216.941L257.997 282.4L221.056 245.459L286.49 180L221.056 114.541L257.997 77.5998L323.456 143.008L388.864 77.5998L425.831 114.541L360.397 180L425.856 245.408L388.89 282.4Z" fill="orange"/>
  </symbol>

  <symbol viewBox="0 0 90 72" fill="none" xmlns="http://www.w3.org/2000/svg" id="loop">
    <path d="M45 0C36.0942 0 27.9085 3.25032 21.6211 8.625C21.3059 8.87589 21.0445 9.18766 20.8525 9.54174C20.6604 9.89582 20.5416 10.2849 20.5032 10.6859C20.4647 11.0869 20.5074 11.4915 20.6287 11.8756C20.75 12.2598 20.9473 12.6155 21.2091 12.9217C21.4708 13.2279 21.7915 13.4783 22.1521 13.6579C22.5126 13.8375 22.9057 13.9426 23.3078 13.9671C23.7098 13.9915 24.1127 13.9347 24.4924 13.8001C24.872 13.6655 25.2207 13.4558 25.5176 13.1836C30.7622 8.70028 37.5498 6 45 6C60.5897 6 73.353 17.8138 74.8535 33H66L78 51L90 33H80.8477C79.3138 14.555 63.8335 0 45 0ZM12 21L0 39H9.15234C10.6862 57.445 26.1665 72 45 72C53.9058 72 62.0915 68.7497 68.3789 63.375C68.6941 63.1241 68.9555 62.8123 69.1475 62.4583C69.3396 62.1042 69.4584 61.7151 69.4968 61.3141C69.5353 60.9131 69.4926 60.5085 69.3713 60.1244C69.2501 59.7402 69.0527 59.3845 68.7909 59.0783C68.5292 58.772 68.2085 58.5217 67.8479 58.3421C67.4874 58.1625 67.0943 58.0573 66.6923 58.0329C66.2902 58.0085 65.8873 58.0653 65.5076 58.1999C65.128 58.3345 64.7793 58.5442 64.4824 58.8164C59.2378 63.2997 52.4502 66 45 66C29.4103 66 16.647 54.1862 15.1465 39H24L12 21Z" fill="orange"/>
  </symbol>





</svg>